<svg xmlns="http://www.w3.org/2000/svg" width="923.981" height="327.489"><defs><clipPath clipPathUnits="userSpaceOnUse" id="a"><path d="M0 1600h1600V0H0z"/></clipPath><clipPath clipPathUnits="userSpaceOnUse" id="b"><path d="M476.885 1316.586c-15.979-8.912-25.52-25.127-25.52-43.37v-146.112c0-18.243 9.541-34.456 25.506-43.361 7.625-4.271 15.713-6.436 24.041-6.436 9.458 0 18.563 2.683 26.171 7.663l117.118 73.1c14.588 9.312 23.297 25.047 23.297 42.09 0 17.202-8.709 33.031-23.297 42.342l-.126.079c-7.407 4.554-17.497 2.187-22.032-5.176-4.557-7.411-2.185-17.501 5.189-22.035 5.187-3.182 8.163-8.633 8.163-14.958 0-6.154-3.038-11.644-8.212-14.984L510.23 1112.68c-5.638-3.419-12.226-3.597-17.894-.605-5.795 3.241-9.119 8.811-9.119 15.283v146.111c0 6.445 3.426 12.264 9.119 15.278 5.819 3.251 12.116 3.076 17.805-.546l68.292-42.492c3.582-2.202 7.843-2.886 12.006-1.942 4.173.952 7.827 3.547 10.021 7.116 2.205 3.58 2.896 7.845 1.946 12.008-.952 4.174-3.547 7.828-7.08 10l-68.264 42.475c-8.116 5.032-17.114 7.558-26.124 7.558-8.228 0-16.466-2.107-24.053-6.338"/></clipPath></defs><g clip-path="url(#a)" transform="matrix(1.33333 0 0 -1.33333 -607.53 1763.899)"><path d="M765.71 1097.731c0 2.085-1.468 3.465-3.376 3.465-1.91 0-3.377-1.38-3.377-3.465 0-2.084 1.468-3.464 3.377-3.464 1.908 0 3.377 1.38 3.377 3.464m-11.158 0c0 4.376 3.465 7.753 7.78 7.753 4.317 0 7.782-3.377 7.782-7.753 0-4.374-3.465-7.75-7.781-7.75s-7.781 3.376-7.781 7.75M784.007 1097.731c0 2.203-1.47 3.583-3.495 3.583-2.026 0-3.494-1.38-3.494-3.583 0-2.202 1.468-3.582 3.494-3.582 2.026 0 3.495 1.38 3.495 3.582m4.404 0c0-4.374-3.171-7.75-7.017-7.75-1.968 0-3.407.674-4.376 1.79v-7.253h-4.405v20.554h4.405v-1.379c.969 1.115 2.408 1.791 4.376 1.791 3.846 0 7.017-3.377 7.017-7.753M801.07 1099.259c-.47 1.703-1.792 2.319-3.113 2.319-1.674 0-2.789-.822-3.2-2.32zm-2.702-5.344c1.203 0 2.231.47 2.82 1.116l3.522-2.026c-1.439-1.997-3.612-3.024-6.4-3.024-5.022 0-8.135 3.377-8.135 7.75 0 4.377 3.171 7.754 7.811 7.754 4.287 0 7.458-3.32 7.458-7.753 0-.617-.059-1.203-.176-1.762h-10.424c.558-1.527 1.91-2.055 3.524-2.055M822.037 1099.405v-9.014h-4.405v8.368c0 1.821-1.145 2.672-2.554 2.672-1.615 0-2.73-.939-2.73-3.024v-8.016h-4.406v14.681h4.405v-1.379c.793 1.086 2.26 1.791 4.2 1.791 2.965 0 5.49-2.114 5.49-6.079M843.799 1094.795c0-3.376-2.937-4.814-6.107-4.814-2.937 0-5.168 1.115-6.314 3.494l3.817 2.173c.382-1.117 1.205-1.733 2.497-1.733 1.056 0 1.585.323 1.585.909 0 1.616-7.223.764-7.223 5.845 0 3.199 2.7 4.815 5.755 4.815 2.379 0 4.492-1.057 5.726-3.142l-3.758-2.026c-.412.763-1 1.29-1.968 1.29-.763 0-1.234-.291-1.234-.821 0-1.673 7.224-.556 7.224-5.99M856.28 1097.731c0 2.085-1.469 3.465-3.377 3.465-1.908 0-3.377-1.38-3.377-3.465 0-2.084 1.47-3.464 3.377-3.464 1.908 0 3.377 1.38 3.377 3.464m-11.158 0c0 4.376 3.465 7.753 7.781 7.753s7.781-3.377 7.781-7.753c0-4.374-3.465-7.75-7.78-7.75-4.317 0-7.782 3.376-7.782 7.75M877.072 1105.072v-14.68h-4.405v1.378c-.792-1.086-2.26-1.79-4.199-1.79-2.965 0-5.49 2.113-5.49 6.078v9.014h4.404v-8.368c0-1.82 1.145-2.672 2.554-2.672 1.615 0 2.731.94 2.731 3.024v8.016zM889.113 1105.366v-4.99c-1.82.293-4.404-.442-4.404-3.349v-6.636h-4.405v14.681h4.405v-2.613c.587 1.968 2.554 2.907 4.404 2.907M889.996 1097.731c0 4.376 3.318 7.753 7.781 7.753 2.85 0 5.373-1.497 6.637-3.759l-3.847-2.23c-.499 1.026-1.556 1.642-2.848 1.642-1.91 0-3.319-1.38-3.319-3.406 0-2.025 1.41-3.405 3.32-3.405 1.291 0 2.378.616 2.847 1.643l3.847-2.202c-1.264-2.29-3.759-3.787-6.637-3.787-4.463 0-7.78 3.377-7.78 7.751M916.043 1099.259c-.47 1.703-1.791 2.319-3.112 2.319-1.674 0-2.789-.822-3.2-2.32zm-2.701-5.344c1.204 0 2.231.47 2.819 1.116l3.524-2.026c-1.439-1.997-3.612-3.024-6.402-3.024-5.02 0-8.134 3.377-8.134 7.75 0 4.377 3.172 7.754 7.812 7.754 4.286 0 7.458-3.32 7.458-7.753 0-.617-.06-1.203-.177-1.762h-10.424c.558-1.527 1.909-2.055 3.524-2.055M944.5 1105.072l-5.433-14.68h-4.991l-5.432 14.68h4.874l3.053-9.308 3.055 9.308zM946.117 1105.072h4.404v-14.681h-4.404zm-.44 3.936c0 1.438 1.204 2.642 2.642 2.642 1.439 0 2.643-1.204 2.643-2.642 0-1.44-1.204-2.643-2.643-2.643-1.438 0-2.642 1.203-2.642 2.643M964.412 1097.731c0 2.203-1.469 3.583-3.495 3.583s-3.494-1.38-3.494-3.583c0-2.202 1.468-3.582 3.494-3.582 2.026 0 3.495 1.38 3.495 3.582m4.404 13.214v-20.554h-4.404v1.38c-.97-1.116-2.408-1.79-4.376-1.79-3.847 0-7.018 3.376-7.018 7.75 0 4.376 3.171 7.753 7.018 7.753 1.968 0 3.406-.676 4.376-1.79v7.251zM982.208 1099.259c-.47 1.703-1.791 2.319-3.112 2.319-1.674 0-2.79-.822-3.201-2.32zm-2.701-5.344c1.203 0 2.231.47 2.819 1.116l3.524-2.026c-1.44-1.997-3.613-3.024-6.402-3.024-5.021 0-8.134 3.377-8.134 7.75 0 4.377 3.171 7.754 7.811 7.754 4.287 0 7.458-3.32 7.458-7.753 0-.617-.059-1.203-.176-1.762h-10.424c.558-1.527 1.909-2.055 3.524-2.055M999.36 1097.731c0 2.085-1.47 3.465-3.378 3.465-1.909 0-3.377-1.38-3.377-3.465 0-2.084 1.468-3.464 3.377-3.464 1.908 0 3.377 1.38 3.377 3.464m-11.158 0c0 4.376 3.465 7.753 7.781 7.753s7.781-3.377 7.781-7.753c0-4.374-3.465-7.75-7.78-7.75-4.317 0-7.782 3.376-7.782 7.75M1024.997 1094.795c0-3.376-2.937-4.814-6.108-4.814-2.936 0-5.167 1.115-6.313 3.494l3.817 2.173c.382-1.117 1.205-1.733 2.496-1.733 1.057 0 1.586.323 1.586.909 0 1.616-7.224.764-7.224 5.845 0 3.199 2.702 4.815 5.756 4.815 2.378 0 4.493-1.057 5.725-3.142l-3.757-2.026c-.413.763-.999 1.29-1.968 1.29-.764 0-1.234-.291-1.234-.821 0-1.673 7.224-.556 7.224-5.99M1032.34 1100.844v-5.196c0-1.263 1.087-1.38 3.024-1.263v-3.993c-5.754-.588-7.428 1.144-7.428 5.256v5.196h-2.35v4.229h2.35v2.79l4.404 1.32v-4.11h3.024v-4.23zM1046.964 1105.366v-4.99c-1.82.293-4.404-.442-4.404-3.349v-6.636h-4.405v14.681h4.405v-2.613c.587 1.968 2.554 2.907 4.404 2.907M1058.74 1099.259c-.47 1.703-1.79 2.319-3.112 2.319-1.674 0-2.789-.822-3.2-2.32zm-2.7-5.344c1.203 0 2.23.47 2.818 1.116l3.524-2.026c-1.44-1.997-3.613-3.024-6.402-3.024-5.02 0-8.134 3.377-8.134 7.75 0 4.377 3.171 7.754 7.811 7.754 4.287 0 7.458-3.32 7.458-7.753 0-.617-.059-1.203-.176-1.762h-10.424c.558-1.527 1.91-2.055 3.524-2.055M1076.127 1097.731c0 2.203-1.469 3.583-3.495 3.583s-3.494-1.38-3.494-3.583c0-2.202 1.468-3.582 3.494-3.582 2.026 0 3.495 1.38 3.495 3.582m4.403 7.341v-14.68h-4.403v1.378c-.97-1.115-2.408-1.79-4.376-1.79-3.847 0-7.018 3.377-7.018 7.751 0 4.376 3.171 7.753 7.018 7.753 1.968 0 3.406-.676 4.376-1.79v1.378zM1105.786 1099.405v-9.014h-4.405v8.633c0 1.468-.704 2.407-2.115 2.407-1.467 0-2.29-1.028-2.29-2.759v-8.28h-4.404v8.632c0 1.468-.705 2.407-2.114 2.407-1.468 0-2.29-1.028-2.29-2.759v-8.28h-4.405v14.68h4.405v-1.35c.675.998 1.967 1.762 3.934 1.762 1.733 0 3.025-.705 3.847-1.938.822 1.174 2.173 1.938 4.257 1.938 3.377 0 5.58-2.408 5.58-6.079M1108.814 1105.072h4.404v-14.681h-4.404zm-.44 3.936c0 1.438 1.203 2.642 2.643 2.642 1.438 0 2.642-1.204 2.642-2.642 0-1.44-1.204-2.643-2.642-2.643-1.44 0-2.643 1.203-2.643 2.643M1130.544 1099.405v-9.014h-4.405v8.368c0 1.821-1.145 2.672-2.554 2.672-1.615 0-2.731-.939-2.731-3.024v-8.016h-4.405v14.681h4.405v-1.379c.793 1.086 2.26 1.791 4.199 1.791 2.966 0 5.49-2.114 5.49-6.079M1144.347 1098.026c0 2.025-1.468 3.405-3.553 3.405s-3.552-1.38-3.552-3.405c0-2.026 1.467-3.406 3.552-3.406s3.553 1.38 3.553 3.406m4.287 7.046v-13.947c0-4.934-3.846-7.018-7.752-7.018-3.054 0-5.608 1.146-6.96 3.553l3.76 2.173c.558-1.029 1.409-1.85 3.348-1.85 2.054 0 3.317 1.058 3.317 3.142v1.35c-.97-1.203-2.378-1.908-4.287-1.908-4.17 0-7.224 3.406-7.224 7.46 0 4.05 3.055 7.457 7.224 7.457 1.909 0 3.318-.705 4.287-1.909v1.497z"/></g><g clip-path="url(#b)" transform="matrix(1.33333 0 0 -1.33333 -601.82 1763.899)"><path d="M398.926 1112.482c-4.709 3.67-8.939 8.807-12.757 14.77 4.08-2.572 8.41-4.982 12.951-7.23 3.09-6.434 6.769-11.916 11.287-15.672a155.724 155.724 0 00-11.481 8.132z" fill="#442d86"/><path d="M410.407 1104.35c-4.518 3.756-8.196 9.238-11.287 15.672a177.742 177.742 0 0114.225-6.26c2.43-6.85 5.49-12.681 9.508-16.664a165.842 165.842 0 00-12.446 7.252z" fill="#494a98"/><path d="M386.17 1127.252c-3.818 5.962-7.223 12.748-10.281 19.716a301.597 301.597 0 0115.47-5.555c2.168-7.568 4.671-14.956 7.762-21.39-4.542 2.247-8.871 4.657-12.952 7.229z" fill="#573784"/><path d="M399.12 1120.022c-3.09 6.435-5.593 13.823-7.761 21.39a338.176 338.176 0 0116.254-4.892c1.5-8.047 3.301-15.91 5.732-22.758a177.742 177.742 0 00-14.225 6.26z" fill="#574c92"/><path d="M422.853 1097.098c8.602-4.529 17.792-8.43 27.463-11.617-2.496 4.675-4.268 11.168-5.577 18.663-10.973 2.56-21.535 5.766-31.394 9.618 2.43-6.85 5.49-12.681 9.508-16.664z" fill="#4e63a8"/><path d="M413.345 1113.762c9.859-3.852 20.42-7.057 31.394-9.618-1.309 7.496-2.154 15.996-2.795 24.686-11.761 2.079-23.264 4.655-34.331 7.69 1.5-8.047 3.301-15.91 5.732-22.758z" fill="#575d9c"/><path d="M375.889 1146.967c10.023-3.917 20.656-7.412 31.724-10.447-1.5 8.048-2.698 16.278-3.92 23.86-12.115 2.208-24.119 4.693-36.004 7.384 2.43-6.683 5.141-13.83 8.2-20.796z" fill="#6a4181"/><path d="M367.69 1167.764c11.884-2.691 23.888-5.176 36.003-7.384-.612 3.79-1.23 7.418-1.895 10.78a1056.285 1056.285 0 00-37.552 6.2c1.083-3.03 2.228-6.255 3.443-9.596z" fill="#7d4c7e"/><path d="M364.246 1177.36a1056.285 1056.285 0 0137.552-6.2c-.664 3.362-1.377 6.458-2.177 9.182a771.479 771.479 0 00-38.444 5.435 498.414 498.414 0 003.07-8.417z" fill="#87517b"/><path d="M407.613 1136.52c11.067-3.035 22.57-5.611 34.33-7.69-.64 8.69-1.08 17.57-1.574 25.825-12.334 1.584-24.561 3.516-36.676 5.724 1.222-7.58 2.42-15.81 3.92-23.859z" fill="#5a4f8c"/><path d="M403.693 1160.38c12.115-2.21 24.342-4.141 36.676-5.725-.248 4.128-.51 8.1-.818 11.815a866.65 866.65 0 00-37.753 4.69c.665-3.362 1.283-6.99 1.895-10.78z" fill="#5e447d"/><path d="M401.798 1171.16a866.65 866.65 0 0137.753-4.69c-.308 3.715-.663 7.172-1.097 10.27a855.232 855.232 0 00-38.833 3.602c.8-2.724 1.513-5.82 2.177-9.182z" fill="#624277"/><path d="M450.316 1085.481c9.671-3.188 19.824-5.663 30.348-7.341-.975 5.367-1.625 12.358-2.062 20.258-11.504 1.27-22.89 3.187-33.863 5.746 1.309-7.495 3.08-13.988 5.577-18.663z" fill="#558dc2"/><path d="M444.74 1104.144c10.972-2.56 22.358-4.475 33.862-5.746-.436 7.9-.657 16.712-.773 25.72a410.143 410.143 0 00-35.885 4.712c.641-8.69 1.486-17.19 2.795-24.686z" fill="#5271a9"/><path d="M480.664 1078.14a206.914 206.914 0 0132.584-2.56c-.284 5.682-.265 12.88-.063 20.938a311.682 311.682 0 00-34.583 1.88c.437-7.9 1.087-14.891 2.062-20.258z" fill="#5aaad4"/><path d="M478.602 1098.398a311.78 311.78 0 0134.583-1.88c.202 8.057.585 16.974 1.028 26.09a400.786 400.786 0 00-36.384 1.51c.116-9.008.337-17.82.773-25.72z" fill="#4c7aad"/><path d="M441.944 1128.83a410.143 410.143 0 0135.885-4.712c-.117 9.008-.129 18.212-.146 26.9-12.54.818-24.98 2.053-37.314 3.637.495-8.256.933-17.136 1.575-25.825z" fill="#4b538f"/><path d="M440.37 1154.655c12.333-1.584 24.773-2.82 37.313-3.637-.008 4.345-.018 8.56-.042 12.556a743.892 743.892 0 00-38.09 2.896c.309-3.715.57-7.687.818-11.815z" fill="#463b7a"/><path d="M439.551 1166.47a743.892 743.892 0 0138.09-2.896 840.408 840.408 0 01-.133 11.246 949.513 949.513 0 00-39.054 1.92c.434-3.098.79-6.555 1.097-10.27z" fill="#473673"/><path d="M477.829 1124.118a400.894 400.894 0 0136.384-1.51c.222 4.558.458 9.165.695 13.741a450.312 450.312 0 00-37.19 1.34c.02-4.514.052-9.067.11-13.571z" fill="#3f508d"/><path d="M477.718 1137.688a450.269 450.269 0 0137.19-1.339c.236 4.576.472 9.12.693 13.547a525.112 525.112 0 00-37.918 1.122c.009-4.343.016-8.817.035-13.33z" fill="#3a4080"/><path d="M477.683 1151.018a525.227 525.227 0 0137.918-1.122c.22 4.429.426 8.743.601 12.86a666.69 666.69 0 00-38.561.818c.024-3.996.034-8.211.042-12.556z" fill="#363476"/><path d="M477.64 1163.574a666.69 666.69 0 0138.562-.817c.174 4.116.318 8.036.417 11.676-13.028-.11-26.074.011-39.11.387.068-3.47.107-7.25.132-11.246z" fill="#352d70"/><path d="M513.247 1075.58c8.089 0 16.04.463 23.809 1.356.208 2.8.484 5.982.811 9.463-7.864-.87-16.662-1.237-24.833-1.24.005-3.519.071-6.738.213-9.579z" fill="#5dbadf"/><path d="M513.034 1085.158c8.17 0 16.97.371 24.833 1.241.327 3.48.705 7.26 1.117 11.256-8.111-.808-17.414-1.124-25.799-1.137-.1-4.029-.156-7.843-.15-11.36z" fill="#5299c5"/><path d="M513.185 1096.518c8.385.013 17.688.33 25.799 1.137.412 3.996.859 8.208 1.323 12.554-8.46-.72-18.01-1.017-26.699-1.043-.176-4.376-.322-8.62-.423-12.648z" fill="#487bae"/><path d="M513.608 1109.166c8.69.026 18.238.323 26.7 1.043.463 4.345.946 8.825 1.43 13.355-8.863-.618-18.487-.914-27.525-.957-.222-4.557-.428-9.065-.605-13.441z" fill="#3f629a"/><path d="M514.213 1122.607c9.038.043 18.662.34 27.524.957.484 4.531.969 9.112 1.438 13.661a575.242 575.242 0 00-28.267-.876c-.237-4.576-.473-9.183-.695-13.742z" fill="#374d8a"/><path d="M514.908 1136.35c9.387.057 19.004.358 28.267.875.469 4.55.923 9.068 1.345 13.471-9.612-.43-19.227-.728-28.919-.8-.22-4.427-.457-8.971-.693-13.547z" fill="#323c7d"/><path d="M515.601 1149.896c9.692.071 19.307.37 28.92.8.422 4.403.812 8.692 1.154 12.784-9.86-.367-19.566-.643-29.473-.724-.175-4.117-.38-8.431-.601-12.86z" fill="#2d3073"/><path d="M516.202 1162.756c9.907.08 19.613.357 29.473.724.342 4.092.636 7.986.864 11.602-9.954-.345-19.932-.565-29.92-.649a767.87 767.87 0 00-.417-11.677z" fill="#2b286d"/><path d="M537.056 1076.936c17.558 2.02 34.197 6.239 49.442 12.287 1.28 2.317 2.565 4.91 3.842 7.722-16.657-5.192-34.715-8.608-52.473-10.546a499.862 499.862 0 01-.811-9.463z" fill="#5ebee1"/><path d="M537.867 1086.4c17.758 1.937 35.816 5.353 52.473 10.545a185.264 185.264 0 013.793 9.036c-17.725-4.12-36.864-6.602-55.15-8.326-.411-3.996-.79-7.775-1.116-11.256z" fill="#519ac5"/><path d="M538.984 1097.655c18.285 1.724 37.424 4.206 55.149 8.326a270.463 270.463 0 013.675 10.008c-18.518-2.901-38.47-4.358-57.5-5.78-.465-4.346-.912-8.558-1.324-12.554z" fill="#467bad"/><path d="M540.307 1110.209c19.03 1.422 38.983 2.879 57.5 5.78a353.998 353.998 0 013.488 10.638c-19.109-1.605-39.673-1.989-59.558-3.063-.483-4.53-.966-9.01-1.43-13.355z" fill="#3d6199"/><path d="M541.737 1123.564c19.885 1.074 40.45 1.458 59.558 3.063a415.01 415.01 0 013.231 10.926c-19.567-.3-40.612.4-61.351-.328-.47-4.548-.954-9.13-1.438-13.66z" fill="#364b88"/><path d="M543.175 1137.225c20.739.728 41.784.027 61.351.328a435.64 435.64 0 012.906 10.87c-19.965.947-41.427 2.698-62.912 2.273-.422-4.403-.876-8.92-1.345-13.47z" fill="#303b7c"/><path d="M544.52 1150.696c21.485.425 42.947-1.326 62.912-2.272a407.301 407.301 0 012.511 10.475c-20.373 2.063-42.257 4.791-64.268 4.581-.342-4.092-.732-8.38-1.155-12.784z" fill="#2b2f72"/><path d="M545.675 1163.48c22.011.21 43.895-2.518 64.268-4.58.764 3.388 1.45 6.652 2.048 9.737-20.862 2.979-43.24 6.574-65.452 6.445-.228-3.616-.522-7.51-.864-11.602z" fill="#29276d"/><path d="M586.498 1089.223c15.244 6.047 29.093 13.924 41.071 23.26a143.471 143.471 0 0113.23 11.66c-12.63-8.28-28.941-14.04-46.666-18.162-2.497-6.385-5.073-12.124-7.635-16.758z" fill="#5ebee1"/><path d="M594.133 1105.981c17.725 4.121 34.036 9.881 46.665 18.162a133.678 133.678 0 015.91 6.295c-13.296-7.2-30.382-11.547-48.9-14.449a270.463 270.463 0 00-3.675-10.008z" fill="#4b7db2"/><path d="M597.808 1115.99c18.518 2.901 35.604 7.248 48.9 14.448a127.323 127.323 0 015.412 6.582c-14.062-5.962-31.716-8.788-50.825-10.393a353.998 353.998 0 00-3.487-10.638z" fill="#43639f"/><path d="M601.295 1126.627c19.11 1.605 36.763 4.431 50.825 10.393 1.718 2.24 3.35 4.526 4.89 6.853-14.826-4.723-32.916-6.022-52.484-6.32a415.01 415.01 0 00-3.23-10.926z" fill="#3d4d8f"/><path d="M604.526 1137.553c19.568.298 37.658 1.597 52.485 6.32a115.57 115.57 0 014.349 7.106c-15.495-3.642-33.963-3.502-53.928-2.556a435.64 435.64 0 00-2.906-10.87z" fill="#373d83"/><path d="M607.432 1148.424c19.965-.947 38.433-1.087 53.928 2.555 1.357 2.41 2.62 4.858 3.786 7.343-15.967-2.879-34.83-1.484-55.203.577a407.301 407.301 0 00-2.51-10.476z" fill="#333179"/><path d="M609.943 1158.9c20.373-2.062 39.236-3.457 55.202-.578a106.86 106.86 0 013.2 7.561c-16.145-2.588-35.492-.224-56.354 2.754a330.006 330.006 0 00-2.048-9.738z" fill="#302974"/><path d="M361.177 1185.777a771.547 771.547 0 0138.327-5.42c-.88 2.929-1.767 6.097-2.604 9.398-13.049 1.15-25.92 2.609-38.505 4.444a103.347 103.347 0 012.782-8.422z" fill="#915779"/><path d="M358.395 1194.199c12.586-1.835 25.456-3.293 38.505-4.444a191.731 191.731 0 00-2.303 10.207c-13.096.74-25.894 1.684-38.243 2.874a100.867 100.867 0 012.041-8.637z" fill="#9d5e76"/><path d="M399.504 1180.356a855.492 855.492 0 0138.714-3.6c-.51 3.284-1.12 6.785-1.746 10.408-13.296.6-26.523 1.441-39.572 2.591.837-3.301 1.724-6.47 2.604-9.399z" fill="#6a4474"/><path d="M396.9 1189.755c13.05-1.15 26.276-1.99 39.572-2.591-.627 3.623-1.27 7.369-1.853 11.143-13.535.378-26.927.915-40.022 1.655.68-3.467 1.466-6.905 2.303-10.207z" fill="#764b72"/><path d="M356.354 1202.836a99.604 99.604 0 00-1.752 17.841c12.004-.255 24.62-.356 37.664-.36.042-6.358.972-13.418 2.331-20.355-13.096.74-25.894 1.684-38.243 2.874z" fill="#ac6671"/><path d="M394.597 1199.962c-1.36 6.937-2.289 13.997-2.331 20.355 13.044 0 26.519.088 40.241.219.03-7.019.947-14.68 2.112-22.229-13.535.378-26.927.915-40.022 1.655z" fill="#885471"/><path d="M438.218 1176.756a948.803 948.803 0 0138.936-1.925c-.142 3.636-.393 7.38-.69 11.188-13.33.186-26.696.544-39.992 1.145.627-3.623 1.235-7.124 1.746-10.407z" fill="#4c3670"/><path d="M436.472 1187.164c13.296-.6 26.663-.96 39.992-1.145-.298 3.81-.64 7.685-.967 11.585-13.667.105-27.344.325-40.878.703.582-3.774 1.226-7.52 1.853-11.143z" fill="#573b6f"/><path d="M477.154 1174.83c12.997-.38 26.004-.504 38.992-.4.026 3.797.055 7.63.083 11.49-13.145-.097-26.437-.086-39.765.1.297-3.81.548-7.552.69-11.189z" fill="#372c6d"/><path d="M476.464 1186.02c13.328-.185 26.62-.196 39.765-.1.03 3.86.058 7.751.082 11.665a3019.067 3019.067 0 00-40.814.02c.327-3.901.67-7.776.967-11.586z" fill="#40306e"/><path d="M434.619 1198.307c13.534-.378 27.211-.598 40.878-.703-.326 3.9-.636 7.826-.866 11.736-13.93.031-27.82.118-41.494.28.379-3.736.899-7.538 1.482-11.313z" fill="#6b4471"/><path d="M433.137 1209.62c13.674-.162 27.564-.248 41.494-.28-.23 3.91-.382 7.806-.39 11.645-14.04-.15-28.011-.318-41.734-.45.015-3.508.252-7.178.63-10.914z" fill="#834e75"/><path d="M475.497 1197.604c13.667-.105 27.323-.097 40.814-.019.024 3.915.045 7.854.058 11.81a6303.348 6303.348 0 00-41.738-.055c.23-3.91.54-7.836.866-11.737z" fill="#543872"/><path d="M474.63 1209.34c13.931-.03 27.902-.01 41.74.056.012 3.957.018 7.933.012 11.922-13.994-.053-28.102-.182-42.14-.333.007-3.839.158-7.734.389-11.644z" fill="#6e4178"/><path d="M516.146 1174.43c10.147.08 20.282.302 30.393.652.237 3.752.456 7.538.65 11.352-10.186-.294-20.75-.44-30.96-.515-.028-3.86-.057-7.692-.083-11.49z" fill="#2b266b"/><path d="M516.23 1185.92c10.21.074 20.773.22 30.958.514.194 3.814.364 7.655.504 11.52a2999.87 2999.87 0 00-31.381-.368c-.024-3.915-.053-7.805-.082-11.666z" fill="#32296d"/><path d="M516.311 1197.585c10.353.062 21.032.198 31.38.369.14 3.864.25 7.75.326 11.653-10.512-.047-21.154-.164-31.648-.211a3905.17 3905.17 0 00-.058-11.81z" fill="#442f72"/><path d="M516.37 1209.396c10.493.047 21.135.164 31.647.21.075 3.904.115 7.824.115 11.756-10.585.01-21.192 0-31.75-.044.006-3.99 0-7.965-.013-11.922z" fill="#5e387a"/><path d="M354.602 1220.677l-.003.788c23.955-.43 50.396-.257 77.85.047.001-.304.057-.672.058-.976-27.446-.262-53.896-.37-77.905.141z" fill="#cb7968"/><path d="M432.507 1220.536c0 .304-.057.671-.057.976 27.454.305 55.922.743 83.93.845 0-.347 0-.692.002-1.04-27.988-.105-56.429-.52-83.875-.781z" fill="#9f5a79"/><path d="M516.382 1221.318c10.558.04 21.165.052 31.75.044v1.023c-10.587.017-21.194.012-31.752-.028l.002-1.039z" fill="#7b4282"/><path d="M354.599 1221.465c0 6.517.635 12.918 1.859 19.168 10.995.793 22.991 1.642 35.67 2.472-.213-7.451.08-15.053.084-21.892-13.037-.027-25.636.037-37.613.252z" fill="#cc7967"/><path d="M392.212 1221.213c13.036.027 26.51.147 40.238.3-.005 3.774-.117 7.73-.24 11.758-13.738-.474-27.188-.954-40.121-1.34.047-3.688.12-7.299.123-10.718z" fill="#b66971"/><path d="M392.089 1231.93c12.933.387 26.383.867 40.122 1.34-.123 4.028-.258 8.128-.312 12.19a2984.388 2984.388 0 01-39.77-2.355c-.108-3.726-.088-7.488-.04-11.175z" fill="#cd7472"/><path d="M356.458 1240.633c10.995.793 22.991 1.642 35.67 2.472.107 3.726.34 7.413.8 10.95-12.351-1.273-23.877-2.679-34.198-4.165a101.22 101.22 0 01-2.272-9.257z" fill="#e88a5e"/><path d="M358.73 1249.89c10.321 1.486 21.847 2.892 34.197 4.164.46 3.536 1.145 6.92 2.156 10.039-12.023-1.634-23.216-3.398-33.23-5.198a104.051 104.051 0 01-3.123-9.005z" fill="#f18f5b"/><path d="M392.128 1243.105c12.679.83 26.042 1.64 39.771 2.355-.054 4.062-.026 8.086.175 11.964a1210.052 1210.052 0 01-39.147-3.37c-.459-3.536-.692-7.224-.799-10.95z" fill="#e07d73"/><path d="M392.927 1254.054a1210.052 1210.052 0 0039.147 3.37c.201 3.878.576 7.609 1.22 11.083a980.035 980.035 0 01-38.211-4.414c-1.01-3.118-1.696-6.503-2.156-10.039z" fill="#ee8374"/><path d="M432.45 1221.512c13.727.152 27.708.338 41.757.5-.009 4.13-.07 8.333-.141 12.557-14.089-.359-28.116-.824-41.855-1.298.122-4.028.233-7.984.239-11.759z" fill="#a15a79"/><path d="M432.21 1233.27c13.74.475 27.767.94 41.856 1.299-.07 4.223-.15 8.466-.193 12.67-14.148-.446-28.244-1.065-41.974-1.779.054-4.062.189-8.162.312-12.19z" fill="#be667e"/><path d="M474.207 1222.011c14.05.16 28.169.295 42.173.346-.011 4.292-.05 8.587-.095 12.865-13.982-.043-28.13-.294-42.22-.653.071-4.224.133-8.428.142-12.558z" fill="#8e4d80"/><path d="M474.066 1234.569c14.088.36 28.237.61 42.219.653-.045 4.278-.097 8.54-.134 12.764-13.933-.025-28.131-.3-42.278-.746.043-4.205.123-8.448.193-12.671z" fill="#ae5987"/><path d="M431.9 1245.46c13.729.714 27.826 1.333 41.973 1.78-.044 4.205-.052 8.372.019 12.446a1302.81 1302.81 0 01-41.818-2.262c-.202-3.878-.229-7.902-.175-11.964z" fill="#d77083"/><path d="M432.074 1257.424a1302.81 1302.81 0 0041.818 2.262c.071 4.074.222 8.054.497 11.885a961.964 961.964 0 01-41.096-3.064c-.643-3.474-1.018-7.205-1.22-11.083z" fill="#e87786"/><path d="M473.873 1247.24c14.147.446 28.345.72 42.278.746-.037 4.223-.06 8.41-.046 12.54-13.884-.01-28.081-.306-42.213-.84a447.068 447.068 0 01-.019-12.446z" fill="#ca638e"/><path d="M473.892 1259.686c14.132.534 28.33.831 42.213.84.013 4.128.063 8.2.17 12.192-13.861 0-27.94-.414-41.886-1.147-.275-3.83-.426-7.811-.497-11.885z" fill="#de6b93"/><path d="M516.38 1222.357c10.557.04 21.165.045 31.75.028-.01 4.23-.084 8.468-.197 12.693-10.516.077-21.17.177-31.648.144.045-4.278.084-8.573.095-12.865z" fill="#7e4383"/><path d="M516.285 1235.222c10.477.033 21.132-.066 31.648-.144-.112 4.226-.262 8.438-.424 12.613-10.363.208-21.057.314-31.358.295.037-4.225.089-8.486.134-12.764z" fill="#9e4e8d"/><path d="M516.15 1247.986c10.302.02 20.996-.087 31.36-.295-.162 4.175-.335 8.311-.491 12.388-10.211.34-20.79.453-30.914.446-.014-4.128.009-8.316.046-12.54z" fill="#bb5895"/><path d="M516.105 1260.525c10.125.01 20.703-.107 30.914-.446-.158 4.077-.3 8.092-.4 12.023-10.14.399-20.3.616-30.344.616a518.237 518.237 0 01-.17-12.193z" fill="#cf5e9b"/><path d="M546.539 1175.082c22.211.129 44.59-3.466 65.452-6.445a217.38 217.38 0 011.74 10.14c-21.307 3.589-44.14 7.709-66.543 7.657a917.72 917.72 0 00-.649-11.352z" fill="#28256b"/><path d="M547.188 1186.434c22.403.052 45.236-4.068 66.544-7.657.515 3.48.96 7.043 1.327 10.633-21.5 4.04-44.543 8.428-67.367 8.544a793.07 793.07 0 00-.504-11.52z" fill="#2e276d"/><path d="M547.692 1197.954c22.824-.116 45.867-4.503 67.367-8.544.367 3.59.656 7.208.855 10.798-21.545 4.477-44.651 9.117-67.897 9.399a691.566 691.566 0 00-.325-11.653z" fill="#3f2c72"/><path d="M548.017 1209.607c23.246-.282 46.352-4.922 67.897-9.4.2 3.59.31 7.153.322 10.633-21.548 5.042-44.666 10.162-68.104 10.522 0-3.932-.04-7.852-.115-11.755z" fill="#56347a"/><path d="M611.991 1168.637c20.862-2.978 40.209-5.342 56.355-2.754a103.475 103.475 0 012.78 8.422c-16.303-2.176-36.086.882-57.394 4.472a217.38 217.38 0 00-1.74-10.14z" fill="#2f2772"/><path d="M613.732 1178.777c21.308-3.59 41.09-6.649 57.395-4.472a100.894 100.894 0 012.041 8.639c-16.651-1.27-36.608 2.425-58.109 6.466-.367-3.59-.812-7.154-1.327-10.633z" fill="#332873"/><path d="M615.06 1189.41c21.5-4.041 41.457-7.737 58.108-6.466a99.506 99.506 0 011.752 17.84c-17.157.049-37.136 5.013-58.684 10.056-.024-6.96-.443-14.25-1.177-21.43z" fill="#3d2b77"/><path d="M548.132 1221.362c46.875-.718 92.473-20.48 126.788-20.578.002.262.003.525.003.789-34.324.208-79.899 20.077-126.793 20.812l.001-1.023z" fill="#713c83"/><path d="M548.13 1222.385c23.448-.367 46.565-5.518 68.11-10.603a233.93 233.93 0 01-.306 11.459c-21.529 5.706-44.637 11.387-68 11.838.112-4.226.187-8.464.197-12.694z" fill="#743d84"/><path d="M547.933 1235.079c23.364-.45 46.472-6.132 68-11.838a268.847 268.847 0 01-.846 11.643c-21.399 6.197-44.397 12.172-67.578 12.807.162-4.175.312-8.387.424-12.613z" fill="#91478e"/><path d="M547.51 1247.69c11.59-.317 23.134-1.969 34.457-4.317-.261 4.055-.555 8.072-.85 12.02-11.179 2.506-22.6 4.277-34.098 4.686.156-4.077.33-8.213.49-12.388z" fill="#ab4f97"/><path d="M547.019 1260.079c11.499-.409 22.919-2.18 34.098-4.686-.296 3.948-.593 7.827-.861 11.606-10.935 2.727-22.18 4.653-33.637 5.103.1-3.93.242-7.946.4-12.023z" fill="#be559d"/><path d="M581.967 1243.373c11.322-2.347 22.42-5.39 33.12-8.489a270.43 270.43 0 01-1.322 11.42c-10.533 3.344-21.47 6.583-32.648 9.089.295-3.948.589-7.965.85-12.02z" fill="#974695"/><path d="M581.117 1255.393c11.178-2.506 22.115-5.745 32.648-9.09a234.337 234.337 0 01-1.734 10.784c-10.217 3.657-20.841 7.185-31.775 9.912.268-3.779.565-7.658.86-11.606z" fill="#a64a9b"/><path d="M616.24 1211.782c21.547-5.086 41.521-10.106 58.683-10.21 0 6.517-.635 12.918-1.859 19.168-16.78 1.526-36.58 7.947-57.977 14.144.73-7.732 1.143-15.615 1.154-23.102z" fill="#5d3485"/><path d="M615.087 1234.884c10.7-3.098 20.998-6.253 30.72-8.824-.48 3.57-1.086 7.104-1.825 10.52-9.558 2.927-19.686 6.377-30.217 9.723a270.43 270.43 0 001.322-11.419z" fill="#7f3d92"/><path d="M613.765 1246.303c10.531-3.346 20.659-6.796 30.217-9.723-.738 3.418-1.609 6.72-2.62 9.828-9.304 3.238-19.114 7.023-29.331 10.68.64-3.444 1.22-7.062 1.734-10.785z" fill="#8a4097"/><path d="M645.807 1226.06c-.96 7.14-2.424 14.13-4.444 20.348 9.305-3.24 18.107-5.932 26.306-7.407a102.463 102.463 0 005.395-18.261c-8.39.763-17.535 2.75-27.257 5.32z" fill="#63358d"/><path d="M361.853 1258.895c10.014 1.8 21.207 3.564 33.23 5.198.837 2.61 1.654 4.984 2.475 7.168a991.021 991.021 0 01-32.603-5.918c-1.087-1.856-2.119-3.98-3.102-6.448z" fill="#f4915a"/><path d="M364.955 1265.343a991.021 991.021 0 0032.603 5.918 93.67 93.67 0 002.49 6.033 665.046 665.046 0 01-31.656-7.113 32.174 32.174 0 01-3.437-4.838z" fill="#f18f5b"/><path d="M368.392 1270.181a665.046 665.046 0 0031.655 7.113 66.66 66.66 0 002.64 5.19c-11.05-2.67-21.31-5.588-30.47-8.622a29.464 29.464 0 01-3.825-3.68z" fill="#e98b5d"/><path d="M372.217 1273.862c9.16 3.034 19.42 5.952 30.47 8.623a58.674 58.674 0 002.926 4.64c-10.645-3.08-20.47-6.54-29.134-10.29-1.5-.924-2.917-1.89-4.262-2.973z" fill="#db8360"/><path d="M395.083 1264.093a980.035 980.035 0 0038.21 4.414 348.92 348.92 0 001.51 8.099 914.08 914.08 0 01-37.245-5.345 155.284 155.284 0 01-2.475-7.168z" fill="#f38574"/><path d="M397.558 1271.26a914.08 914.08 0 0037.246 5.346c.497 2.489.994 4.785 1.506 6.937a693.601 693.601 0 01-36.263-6.25 93.67 93.67 0 01-2.49-6.032z" fill="#f08474"/><path d="M400.047 1277.294a693.601 693.601 0 0036.263 6.25 127.662 127.662 0 001.593 6.077c-12.323-2.043-24.164-4.466-35.215-7.136a66.66 66.66 0 01-2.64-5.191z" fill="#e88073"/><path d="M402.688 1282.485c11.05 2.67 22.892 5.093 35.215 7.136a99.786 99.786 0 001.769 5.52c-11.947-2.233-23.413-4.934-34.059-8.015a58.674 58.674 0 01-2.925-4.641z" fill="#da7a73"/><path d="M376.479 1276.834c17.329 7.5 39.299 13.841 63.193 18.307a96.793 96.793 0 002.035 5.263c-23.031-4.844-44.14-11.922-60.477-20.854-1.671-.913-3.252-1.793-4.751-2.716z" fill="#c87865"/><path d="M381.23 1279.55c16.337 8.932 37.446 16.01 60.477 20.854a117.983 117.983 0 002.393 5.307c-22.015-5.262-42.107-13.07-57.58-23.252-1.859-1.052-3.62-1.996-5.29-2.909z" fill="#af6a6b"/><path d="M386.52 1282.46c15.473 10.18 35.565 17.989 57.58 23.251a184.85 184.85 0 002.84 5.653c-20.8-5.76-39.677-14.286-54.538-25.35a110.838 110.838 0 00-5.882-3.555z" fill="#915973"/><path d="M392.402 1286.013c14.86 11.065 33.738 19.591 54.537 25.351a378.756 378.756 0 003.377 6.3c-19.342-6.376-36.762-15.601-51.39-27.001a93.133 93.133 0 00-6.524-4.65z" fill="#6d447c"/><path d="M433.293 1268.507a961.964 961.964 0 0041.096 3.064c.19 3.242.37 6.19.546 8.903-13.663-.943-27.138-2.283-40.131-3.868a348.92 348.92 0 01-1.51-8.099z" fill="#ef7a88"/><path d="M434.804 1276.606c12.993 1.585 26.468 2.925 40.131 3.868.175 2.715.347 5.198.522 7.512-13.338-1.075-26.483-2.608-39.147-4.443a196.664 196.664 0 01-1.506-6.937z" fill="#ec7887"/><path d="M436.31 1283.543c12.664 1.835 25.809 3.368 39.147 4.443.176 2.313.355 4.458.545 6.497a509.463 509.463 0 01-38.1-4.862 127.662 127.662 0 01-1.592-6.078z" fill="#e37586"/><path d="M437.903 1289.621a509.463 509.463 0 0038.1 4.862c.19 2.038.391 3.97.612 5.861a420.607 420.607 0 01-36.943-5.203 99.786 99.786 0 01-1.77-5.52z" fill="#d46f84"/><path d="M474.389 1271.571c13.946.733 28.025 1.147 41.886 1.147.044 3.386.01 6.444-.082 9.247-13.745 0-27.595-.547-41.258-1.49-.176-2.715-.355-5.662-.546-8.904z" fill="#e66d95"/><path d="M474.935 1280.474c13.663.944 27.513 1.491 41.258 1.491a169.11 169.11 0 01-.425 7.711c-13.44 0-26.972-.616-40.31-1.69a677.792 677.792 0 01-.523-7.512z" fill="#e36c95"/><path d="M475.457 1287.986c13.34 1.074 26.872 1.69 40.311 1.69a188.19 188.19 0 01-.639 6.603c-13.007 0-26.152-.643-39.127-1.796-.19-2.04-.37-4.184-.545-6.497z" fill="#da6993"/><path d="M476.002 1294.483c12.975 1.153 26.12 1.796 39.127 1.796-.234 2.063-.483 4.012-.724 5.919-12.511 0-25.221-.648-37.79-1.854a254.21 254.21 0 01-.613-5.861z" fill="#cc6491"/><path d="M439.672 1295.141a420.607 420.607 0 0036.943 5.203c.22 1.89.46 3.737.727 5.604-12.121-1.258-24.118-3.122-35.635-5.544a96.793 96.793 0 01-2.035-5.263z" fill="#c16782"/><path d="M441.707 1300.404c11.517 2.422 23.514 4.286 35.635 5.544.266 1.868.56 3.755.887 5.726-11.633-1.336-23.121-3.331-34.129-5.963-.867-1.81-1.66-3.562-2.393-5.307z" fill="#a85c81"/><path d="M444.1 1305.711c11.008 2.631 22.496 4.627 34.129 5.963.654 3.942 1.446 8.218 2.435 13.332-10.524-1.68-20.677-4.154-30.348-7.342-2.45-4.483-4.482-8.333-6.216-11.953z" fill="#8b4f81"/><path d="M476.615 1300.344c12.569 1.206 25.279 1.853 37.79 1.853-.482 3.814-.934 7.455-1.184 11.494-11.583 0-23.36-.68-34.992-2.017a232.362 232.362 0 01-1.614-11.33z" fill="#b95c8f"/><path d="M478.229 1311.675a307.71 307.71 0 0034.992 2.016c-.25 4.038-.3 8.474.027 13.874-11.162 0-22.06-.881-32.584-2.56-.99-5.113-1.78-9.389-2.435-13.33z" fill="#864889"/><path d="M516.275 1272.718c10.045 0 20.204-.217 30.344-.616a128.544 128.544 0 01-.541 9.137c-10.039.42-19.924.726-29.885.726.092-2.803.126-5.861.082-9.247z" fill="#d6619d"/><path d="M516.193 1281.965c9.96 0 19.846-.306 29.885-.726a102.957 102.957 0 01-1.018 7.617c-9.77.476-19.553.82-29.292.82.185-2.362.333-4.909.425-7.71z" fill="#d4609d"/><path d="M515.768 1289.676c9.74 0 19.522-.344 29.292-.82-.805 4.664-1.83 8.595-2.884 12.355-8.955.646-18.704.986-27.77.986.482-3.813.993-7.797 1.362-12.521z" fill="#cc5d9b"/><path d="M514.405 1302.197c9.067 0 18.816-.34 27.77-.986-1.053 3.76-2.135 7.349-3.052 11.328-8.14.816-17.508 1.152-25.902 1.152.25-4.039.702-7.68 1.184-11.493z" fill="#ae5397"/><path d="M513.22 1313.69c8.395 0 17.762-.335 25.903-1.151a88.666 88.666 0 00-2.067 13.67c-7.77.893-15.72 1.356-23.809 1.356-.325-5.4-.277-9.836-.026-13.874z" fill="#80428f"/><path d="M546.62 1272.102c11.457-.45 22.701-2.376 33.636-5.103-.451 6.417-1.516 11.776-2.924 16.518-10.452 2.809-21.233 4.8-32.272 5.339.805-4.665 1.389-10.062 1.56-16.754z" fill="#c5579f"/><path d="M545.06 1288.856c11.04-.538 21.82-2.53 32.272-5.339-1.407 4.743-3.16 8.87-4.985 12.827-9.932 2.395-20.053 4.137-30.171 4.867 1.054-3.76 2.08-7.691 2.884-12.355z" fill="#bd549d"/><path d="M580.256 1266.999c10.934-2.727 21.558-6.255 31.775-9.912a101.197 101.197 0 01-4.396 16.192c-9.726 3.804-19.85 7.43-30.303 10.238 1.408-4.742 2.473-10.1 2.924-16.518z" fill="#ac4c9d"/><path d="M577.332 1283.517c10.453-2.808 20.577-6.434 30.303-10.238-1.817 5.03-3.943 9.741-6.246 14.281-9.367 3.34-19.11 6.388-29.042 8.783 1.826-3.956 3.578-8.083 4.985-12.826z" fill="#a64a9c"/><path d="M542.176 1301.211c10.118-.73 20.239-2.473 30.17-4.868-1.826 3.956-3.727 7.741-5.433 11.798-9.245 1.982-18.593 3.475-27.79 4.398.917-3.98 1.999-7.568 3.053-11.328z" fill="#a54d99"/><path d="M539.123 1312.539c9.197-.923 18.545-2.416 27.79-4.398a80.646 80.646 0 00-2.381 6.346 256.714 256.714 0 01-26.639 4.383c.353-2.255.77-4.342 1.23-6.331z" fill="#7c3f91"/><path d="M537.894 1318.87a256.714 256.714 0 0026.638-4.382 66.571 66.571 0 00-1.888 7.088 199.784 199.784 0 01-25.588 4.633c.198-2.661.485-5.084.837-7.339z" fill="#62378c"/><path d="M572.347 1296.343c9.932-2.395 19.675-5.442 29.042-8.783-2.304 4.54-4.784 8.91-7.31 13.254a268.54 268.54 0 01-27.166 7.327c1.706-4.057 3.607-7.842 5.434-11.798z" fill="#934597"/><path d="M566.913 1308.141a268.54 268.54 0 0027.167-7.327c-2.526 4.344-5.097 8.665-7.582 13.108a188.664 188.664 0 01-23.854 7.654c1.05-5.047 2.562-9.377 4.269-13.435z" fill="#733c90"/><path d="M612.03 1257.087c10.218-3.656 20.028-7.441 29.333-10.68a182.835 182.835 0 01-5.813 15.557c-8.86 3.526-18.188 7.51-27.915 11.315a101.197 101.197 0 004.396-16.192z" fill="#8e4199"/><path d="M607.635 1273.279c9.727-3.805 19.054-7.789 27.915-11.315-2.195 5.132-4.651 10.18-7.387 15.058-8.42 3.565-17.409 7.198-26.774 10.538 2.303-4.54 4.429-9.251 6.246-14.281z" fill="#894097"/><path d="M641.363 1246.408c9.305-3.24 18.107-5.932 26.306-7.407a109.736 109.736 0 01-7.012 14.396c-7.855 1.973-16.247 5.04-25.107 8.567a182.835 182.835 0 005.813-15.556z" fill="#6c3791"/><path d="M635.55 1261.964c8.86-3.526 17.252-6.595 25.107-8.567a119.36 119.36 0 01-9.127 13.491c-7.095 3.07-14.947 6.569-23.367 10.134 2.736-4.877 5.192-9.926 7.387-15.058z" fill="#673690"/><path d="M601.389 1287.56c9.365-3.34 18.354-6.973 26.774-10.538-2.736 4.877-5.752 9.584-9.063 14.03-7.813 3.605-16.238 6.886-25.02 9.762 2.525-4.345 5.005-8.714 7.309-13.254z" fill="#793c93"/><path d="M594.08 1300.814c8.782-2.876 17.207-6.157 25.02-9.762-3.312 4.447-6.92 8.634-10.842 12.473a174.924 174.924 0 01-21.76 10.397c2.485-4.443 5.056-8.764 7.582-13.108z" fill="#62368c"/><path d="M628.163 1277.022c-5.473 9.755-12.062 18.824-19.905 26.503 6.866-3.892 13.322-8.195 19.311-12.862 9.15-7.13 17.206-15.11 23.96-23.775-7.094 3.07-14.946 6.569-23.366 10.134z" fill="#5d348c"/></g><path d="M491.489 77.028c-8.108-3.432-17.427.357-20.844 8.449l-46.34 109.528-46.344-109.528c-3.418-8.092-12.776-11.881-20.844-8.45-8.092 3.418-11.875 12.751-8.45 20.845L409.66 242.02a15.891 15.891 0 0014.647 9.706c6.39 0 12.161-3.82 14.647-9.706l60.985-144.148c3.424-8.094-.359-17.427-8.45-20.844M529.01 183.884l21.747-51.393 21.743 51.393zm82.146 9.743a1.291 1.291 0 00-.023-.057l-45.73-108.094a15.89 15.89 0 00-14.646-9.706 15.893 15.893 0 00-14.648 9.706l-45.744 108.116s-.002 0-.004.014l-15.244 36.025c-3.424 8.092.36 17.427 8.45 20.843 8.077 3.417 17.426-.358 20.844-8.448l11.138-26.328h70.408l11.138 26.328c2.562 6.072 8.457 9.706 14.654 9.706 2.066 0 4.171-.404 6.188-1.258 8.094-3.416 11.876-12.751 8.45-20.843zM913.543 76.733a15.858 15.858 0 00-17.605 4.674l-48.847 57.715-48.854-57.73a15.95 15.95 0 00-17.612-4.66 15.92 15.92 0 00-10.431 14.942v144.148c0 8.792 7.121 15.905 15.905 15.905 8.783 0 15.904-7.113 15.904-15.905V135.085l32.951 38.937c6.041 7.113 18.233 7.13 24.276-.015l32.943-38.922v100.737c0 8.792 7.12 15.905 15.902 15.905 8.783 0 15.906-7.113 15.906-15.905V91.674c0-6.679-4.171-12.643-10.438-14.941M737.493 107.578c8.784 0 15.905-7.113 15.905-15.905 0-8.79-7.121-15.903-15.905-15.903h-79.094c-8.784 0-15.905 7.114-15.905 15.903v144.15c0 8.79 7.121 15.903 15.905 15.903h79.094c8.784 0 15.905-7.113 15.905-15.904 0-8.79-7.121-15.904-15.905-15.904h-63.191v-40.273h31.367c8.784 0 15.905-7.113 15.905-15.905 0-8.791-7.121-15.904-15.905-15.904h-31.367v-40.258z"/></svg>